/* XPM */
static char *chalk_xpm[] = {
/* columns rows colors chars-per-pixel */
"32 64 6 1",
/* colors */
". c None",
"a c #888888",  /* Dark gray shadow */
"b c #AAAAAA",  /* Medium gray */
"c c #CCCCCC",  /* Light gray */
"d c #EEEEEE",  /* Very light gray */
"O c #FFFFFF",  /* Pure white highlight */
/* pixels */
"................................",
"................................",
"................................",
"................................",
"................................",
"................................",
"................................",
"....aabbbccccdddddddccccbbaa....",
"...aabbccddddOOOOOOOOddccbbaa...",
"...abccdddOOOOOOOOOOOOOdccbaa...",
"..aabcdddOOOOOOOOOOOOOOOdccbaa..",
"..abcddOOOOOOOOOOOOOOOOOOdccbaa.",
"..abcdOOOOOOOOOOOOOOOOOOOdccbaa.",
"..abcdOOOOOOOOOOOOOOOOOOOdccbaa.",
"..abcdOOOOOOOOOOOOOOOOOOOdccbaa.",
"..abcdOOOOOOOOOOOOOOOOOOOdccbaa.",
"..abcdOOOOOOOOOOOOOOOOOOOdccbaa.",
"..abcdOOOOOOOOOOOOOOOOOOOdccbaa.",
"..abcdOOOOOOOOOOOOOOOOOOOdccbaa.",
"..abcdOOOOOOOOOOOOOOOOOOOdccbaa.",
"..abcdOOOOOOOOOOOOOOOOOOOdccbaa.",
"..abcdOOOOOOOOOOOOOOOOOOOdccbaa.",
"..abcdOOOOOOOOOOOOOOOOOOOdccbaa.",
"..abcdOOOOOOOOOOOOOOOOOOOdccbaa.",
"..abcdOOOOOOOOOOOOOOOOOOOdccbaa.",
"..abcdOOOOOOOOOOOOOOOOOOOdccbaa.",
"..abcdOOOOOOOOOOOOOOOOOOOdccbaa.",
"..abcdOOOOOOOOOOOOOOOOOOOdccbaa.",
"..abcdOOOOOOOOOOOOOOOOOOOdccbaa.",
"..abcdOOOOOOOOOOOOOOOOOOOdccbaa.",
"..abcdOOOOOOOOOOOOOOOOOOOdccbaa.",
"..abcdOOOOOOOOOOOOOOOOOOOdccbaa.",
"..abcdOOOOOOOOOOOOOOOOOOOdccbaa.",
"..abcdOOOOOOOOOOOOOOOOOOOdccbaa.",
"..abcdOOOOOOOOOOOOOOOOOOOdccbaa.",
"..abcdOOOOOOOOOOOOOOOOOOOdccbaa.",
"..abcdOOOOOOOOOOOOOOOOOOOdccbaa.",
"..abcdOOOOOOOOOOOOOOOOOOOdccbaa.",
"..abcdOOOOOOOOOOOOOOOOOOOdccbaa.",
"..abcdOOOOOOOOOOOOOOOOOOOdccbaa.",
"..abcdOOOOOOOOOOOOOOOOOOOdccbaa.",
"..abcdOOOOOOOOOOOOOOOOOOOdccbaa.",
"..abcdOOOOOOOOOOOOOOOOOOOdccbaa.",
"..abcdOOOOOOOOOOOOOOOOOOOdccbaa.",
"..abcdOOOOOOOOOOOOOOOOOOOdccbaa.",
"..abcdOOOOOOOOOOOOOOOOOOOdccbaa.",
"..abcdOOOOOOOOOOOOOOOOOOOdccbaa.",
"..abcdOOOOOOOOOOOOOOOOOOOdccbaa.",
"..abcdOOOOOOOOOOOOOOOOOOOdccbaa.",
"..abcdOOOOOOOOOOOOOOOOOOOdccbaa.",
"..abcdOOOOOOOOOOOOOOOOOOOdccbaa.",
"..abcdOOOOOOOOOOOOOOOOOOOdccbaa.",
"..abcdOOOOOOOOOOOOOOOOOOOdccbaa.",
"..abcdOOOOOOOOOOOOOOOOOOOdccbaa.",
"..abcddOOOOOOOOOOOOOOOOOdccbaa..",
"..aabcddOOOOOOOOOOOOOOOdccbaa...",
"...aabccddOOOOOOOOOOddccbbaa....",
"...aabbcccddddddddddccccbaa.....",
"....aabbbbccccccccccbbaa........",
"................................",
"................................",
"................................",
"................................",
"................................",
"................................",
"................................",
"................................"
};