/* XPM */
static char *coll1713966726[] = {
/* columns rows colors chars-per-pixel */
"33 33 158 2 ",
"   c #EFF5EF",
".  c #F0F6F0",
"X  c #F5FBF5",
"o  c #F6FCF6",
"O  c #F4FAF4",
"+  c #F1F7F1",
"@  c #E8EEE8",
"#  c #CACFCA",
"$  c #C5CAC5",
"%  c #C3C8C3",
"&  c #D1D6D1",
"*  c #F3F9F3",
"=  c #C0C5C0",
"-  c #333433",
";  c #262726",
":  c #2B2C2B",
">  c #252525",
",  c #5D5F5D",
"<  c #E1E7E1",
"1  c #F9FFF9",
"2  c #AFB3AF",
"3  c #3E3F3E",
"4  c gray7",
"5  c #7D807D",
"6  c #B3B7B3",
"7  c #AAAFAA",
"8  c #B0B5B0",
"9  c #8E918E",
"0  c #5B5D5B",
"q  c #D2D7D2",
"w  c #F8FEF8",
"e  c #ECF2EC",
"r  c #ACB0AC",
"t  c #494B49",
"y  c gray11",
"u  c #737573",
"i  c #D9DFD9",
"p  c #C8CCC8",
"a  c #ABB0AB",
"s  c #F2F8F2",
"d  c #A6AAA6",
"f  c #C4C9C4",
"g  c #D5DAD5",
"h  c #757875",
"j  c #828582",
"k  c #E9EEE9",
"l  c #4F514F",
"z  c black",
"x  c #404140",
"c  c #E2E8E2",
"v  c #FAFFFA",
"b  c #7C7E7C",
"n  c #343534",
"m  c #B0B4B0",
"M  c #595B59",
"N  c #939793",
"B  c #393A39",
"V  c #E9EFE9",
"C  c #525452",
"Z  c #020102",
"A  c #3F403F",
"S  c #DFE5DF",
"D  c #838683",
"F  c gray5",
"G  c gray17",
"H  c #B2B7B2",
"J  c #EEF4EE",
"K  c #3B3C3B",
"L  c #848784",
"P  c #060606",
"I  c #151515",
"U  c #FCFFFC",
"Y  c #F2F9F2",
"T  c #4C4E4C",
"R  c #414241",
"E  c #E6ECE6",
"W  c #FBFFFB",
"Q  c #7C7F7C",
"!  c #1F201F",
"~  c #767976",
"^  c #7B7E7B",
"/  c #B7BCB7",
"(  c #E5EBE5",
")  c #373837",
"_  c #808380",
"`  c #F0F7F0",
"'  c #EAF0EA",
"]  c #787B78",
"[  c #202120",
"{  c #303130",
"}  c #B1B5B1",
"|  c #EBF1EB",
" . c #9A9E9A",
".. c #6D6F6D",
"X. c #E0E6E0",
"o. c #6B6E6B",
"O. c #9A9D9A",
"+. c #B2B6B2",
"@. c #9FA29F",
"#. c #898D89",
"$. c #181818",
"%. c #252625",
"&. c #EDF3ED",
"*. c #DCE1DC",
"=. c #AFB4AF",
"-. c #BABFBA",
";. c #969996",
":. c #1D1D1D",
">. c #2F302F",
",. c #9B9E9B",
"<. c #6F726F",
"1. c #3A3B3A",
"2. c #5E605E",
"3. c #E7EDE7",
"4. c #C7CCC7",
"5. c #212221",
"6. c #010101",
"7. c #F7FEF7",
"8. c #3C3E3C",
"9. c #3D3E3D",
"0. c #A5A9A5",
"q. c #C1C6C1",
"w. c gray13",
"e. c #070707",
"r. c #F7FDF7",
"t. c #3E403E",
"y. c #CBD0CB",
"u. c #E4E9E4",
"i. c #515351",
"p. c #5A5C5A",
"a. c #D9DED9",
"s. c #CCD1CC",
"d. c #9CA09C",
"f. c #4E4F4E",
"g. c #C8CDC8",
"h. c #929592",
"j. c #DBE0DB",
"k. c #F6FDF6",
"l. c #7F827F",
"z. c #F8FFF8",
"x. c #F3FAF3",
"c. c #9B9F9B",
"v. c #646664",
"b. c #E3E9E3",
"n. c #727472",
"m. c #DEE3DE",
"M. c #404240",
"N. c #C5C9C5",
"B. c #F5FCF5",
"V. c #C2C7C2",
"C. c #3D3F3D",
"Z. c #383938",
"A. c #ADB1AD",
"S. c #8B8F8B",
"D. c #888B88",
"F. c #A7ACA7",
"G. c #F4FBF4",
"H. c white",
/* pixels */
"                                                                  ",
"                                                                  ",
"                                                                  ",
"                                                                  ",
"                                                                  ",
"                                                                  ",
"                      . X o o o o o o O                           ",
"                    + @ # $ $ $ $ $ % &   .                       ",
"                    * = - ; : : : : > , < .                       ",
"                  1 2 3 4 5 6 2 7 2 8 9 0 q w                     ",
"              . e r t y u i p a s d f g h j % s                   ",
"              + k l z x c v b n m M N 1 c B j o                   ",
"              + V C Z A S 1 D F G H J * S K L o                   ",
"              + V C Z A S 1 L P I = U Y S K L o                   ",
"              + k T z R E W Q ! ~ ^ / w ( ) _ o                   ",
"              ` ' ] [ { } |  ...X.o.O.V +.M @.O                   ",
"                  e #.$.%.2 V E &.*.c =.A -.                      ",
"                  * S ;.:.>.,.w E <.1.2./ 3.s                     ",
"                    v 4.5.6.] 7.c 8.9.0.+ s                       ",
"                    o q.w.e.Q r.c t.0 y.. .                       ",
"                    o q.w.e.Q r.u.i.$.p.a.J .                     ",
"                    o q.w.e.Q X e s.$ d.f.g.X                     ",
"                    o q.w.e.Q O   7.6 h h.j.s                     ",
"                    k.= :.P l.z.x.r.c.v.} b.+                     ",
"                    o $ - F n.S j.j.m.0.M.N.B.                    ",
"                    . V V.C.y Z.) ) - , V.@ .                     ",
"                      s + A.S.S.S.S.D.F.+ s                       ",
"                          G.r.k.k.k.r.G.                          ",
"                                                                  ",
"                                                                  ",
"                                                                  ",
"                                                                  ",
"                                                                  "
};
