/* XPM */
static char *exit1713966726[] = {
/* columns rows colors chars-per-pixel */
"33 33 248 2 ",
"   c #EFF5EF",
".  c #EEF4EE",
"X  c #EDF3ED",
"o  c #F4FAF4",
"O  c #F7FDF7",
"+  c #F8FFF8",
"@  c #F0F6F0",
"#  c #848784",
"$  c #565856",
"%  c #5C5E5C",
"&  c #595B59",
"*  c #676967",
"=  c #D7DCD7",
"-  c #FCFFFC",
";  c #F6FCF6",
":  c #F1F7F1",
">  c #F2F8F2",
",  c #B0B4B0",
"<  c #909390",
"1  c #949794",
"2  c #919491",
"3  c #6D6F6D",
"4  c #5D5F5D",
"5  c #5F615F",
"6  c #5E605E",
"7  c #626562",
"8  c #888B88",
"9  c #959895",
"0  c #919591",
"q  c #9CA09C",
"w  c #E4E9E4",
"e  c #F5FBF5",
"r  c #EBF1EB",
"t  c #CACFCA",
"y  c #2D2E2D",
"u  c #313231",
"i  c #3B3C3B",
"p  c #BFC4BF",
"a  c #F8FEF8",
"s  c #E3E9E3",
"d  c #5A5C5A",
"f  c #303130",
"g  c #414241",
"h  c #AFB4AF",
"j  c #E5EBE5",
"k  c #F3F9F3",
"l  c #C7CCC7",
"z  c #434443",
"x  c #A1A5A1",
"c  c #DCE2DC",
"v  c #D6DBD6",
"b  c #E6ECE6",
"n  c #ECF2EC",
"m  c #EAF0EA",
"M  c #DBE0DB",
"N  c #D5DBD5",
"B  c #D9DFD9",
"V  c #4A4B4A",
"C  c #979A97",
"Z  c #AEB2AE",
"A  c #646664",
"S  c #9EA29E",
"D  c #E3E8E3",
"F  c white",
"G  c #FDFFFD",
"H  c #7E817E",
"J  c #4B4D4B",
"K  c #515351",
"L  c #4F504F",
"P  c #D8DED8",
"I  c #F3FAF3",
"U  c #B3B7B3",
"Y  c #6F726F",
"T  c #878A87",
"R  c #878B87",
"E  c #343534",
"W  c #E4EAE4",
"Q  c #B2B6B2",
"!  c #8C8F8C",
"~  c #8A8D8A",
"^  c #707270",
"/  c #646764",
"(  c #666866",
")  c #656765",
"_  c #696B69",
"`  c #8D908D",
"'  c #898C89",
"]  c #969A96",
"[  c #6A6D6A",
"{  c #F6FDF6",
"}  c #B1B5B1",
"|  c #323232",
" . c #353635",
".. c #404240",
"X. c #C2C7C2",
"o. c #FAFFFA",
"O. c #323332",
"+. c #444544",
"@. c #ADB1AD",
"#. c #595A59",
"$. c #535553",
"%. c gray7",
"&. c gray18",
"*. c #A8ACA8",
"=. c #E1E7E1",
"-. c #E9EFE9",
";. c #E8EDE8",
":. c #D9DED9",
">. c #D7DDD7",
",. c #DEE4DE",
"<. c #CBD0CB",
"1. c gray6",
"2. c #585A58",
"3. c #8E918E",
"4. c #2A2A2A",
"5. c #E1E6E1",
"6. c #4C4D4C",
"7. c #B8BDB8",
"8. c #474847",
"9. c #545554",
"0. c #8B8E8B",
"q. c #383938",
"w. c #E2E8E2",
"e. c #FEFFFE",
"r. c #838683",
"t. c #6D706D",
"y. c #757875",
"u. c #A6AAA6",
"i. c #696C69",
"p. c #8B8F8B",
"a. c #373837",
"s. c #C2C6C2",
"d. c #676A67",
"f. c #393A39",
"g. c #D5DAD5",
"h. c #626462",
"j. c #100F10",
"k. c #464746",
"l. c #E0E5E0",
"z. c #A3A7A3",
"x. c #6C6F6C",
"c. c #D4DAD4",
"v. c #C3C8C3",
"b. c #F9FFF9",
"n. c #ABAFAB",
"m. c #282928",
"M. c #C7CBC7",
"N. c #3A3B3A",
"B. c #DBE1DB",
"V. c #525352",
"C. c #717371",
"Z. c #B7BCB7",
"A. c #7A7C7A",
"S. c #7C7F7C",
"D. c #787B78",
"F. c #9A9E9A",
"G. c #AAAEAA",
"H. c #2B2C2B",
"J. c #2F302F",
"K. c #A7ABA7",
"L. c #3F413F",
"P. c #6F716F",
"I. c #3C3D3C",
"U. c #404140",
"Y. c #6E716E",
"T. c #E8EEE8",
"R. c #929592",
"E. c #111111",
"W. c gray11",
"Q. c #0E0E0E",
"!. c #757775",
"~. c #929692",
"^. c gray5",
"/. c #0A090A",
"(. c gray3",
"). c #8F928F",
"_. c #242524",
"`. c #767976",
"'. c #2E2F2E",
"]. c #717471",
"[. c #FBFFFB",
"{. c #A9AEA9",
"}. c #DADFDA",
"|. c #CFD4CF",
" X c #C4C9C4",
".X c #C1C6C1",
"XX c #ABB0AB",
"oX c #505150",
"OX c #7A7D7A",
"+X c #C9CEC9",
"@X c #414341",
"#X c #777A77",
"$X c #363736",
"%X c #DCE1DC",
"&X c #525452",
"*X c #BCC0BC",
"=X c #868986",
"-X c #858885",
";X c #8D918D",
":X c #2C2D2C",
">X c #9B9F9B",
",X c #3D3F3D",
"<X c #4E4F4E",
"1X c #F2F9F2",
"2X c #101010",
"3X c #161616",
"4X c gray9",
"5X c #505250",
"6X c #2C2C2C",
"7X c #0B0B0B",
"8X c #686A68",
"9X c #AAAFAA",
"0X c #494A49",
"qX c #BEC3BE",
"wX c #6E706E",
"eX c #777977",
"rX c #ACB0AC",
"tX c #202020",
"yX c #333433",
"uX c #6B6D6B",
"iX c #A5A9A5",
"pX c #BCC1BC",
"aX c #B9BDB9",
"sX c #090909",
"dX c #060506",
"fX c #2A2B2A",
"gX c #797C79",
"hX c #A5AAA5",
"jX c gray17",
"kX c #ACB1AC",
"lX c #9DA19D",
"zX c #222322",
"xX c gray8",
"cX c #232323",
"vX c #181818",
"bX c gray19",
"nX c #292A29",
"mX c #070607",
"MX c #060606",
"NX c #040404",
"BX c #080708",
"VX c #040304",
"CX c #020202",
"ZX c #050405",
"AX c #010001",
"SX c #B5B9B5",
"DX c #636563",
"FX c #909490",
/* pixels */
"                          . X X X X X X X                         ",
"                  o O + @ # $ % % % % & * = - O ; @               ",
"              : > , < 1 2 3 4 5 5 5 5 6 7 8 9 0 q w e             ",
"            : r t 5 y u i p a : : : : o s d y f g h j :           ",
"            k l z x c v = b X n n n n n m M N B l V C k           ",
"          o Z A S D F G o H J K K K K L 6 P F G I U Y T n @       ",
"          O R E W Q T ! ~ ^ / ( ( ( ( ) _ # ` ' ] n [ J r @       ",
"          { ` f } A |  ...X.o.k k k k { b 5 O.E +.@.#.$.r @       ",
"          { 0 %.&.*.=.B v s m -.-.-.-.-.;.:.>.,.<.J 1.2.r @       ",
"          { 3.4.S 5.F = % V J J J J J J J 6.Z F X 7.8.9.r @       ",
"          { 0.q.w.e.l r.Y 3 t.t.t.t.t.t.t.3 y.u.k o.i.K r @       ",
"          { p.a.B P ( q.w.O k k k k k k k ; ' % s.m d.K r @       ",
"          { p.f.g.h.j.k.l.k                 X z.f.t x.K r @       ",
"          { p.f.c.L L v.r @ > e e e e k     b.n.m.M.3 K r @       ",
"          { 0.N.B.V.C.b.@ > Z.A.S.S.D.F.m @ O G.H.l 3 K r @       ",
"          { ` J.K.L.P.k   o F.I.U.U.N.Y.T.: O G.H.l 3 K r @       ",
"          { R.E.W.Q.!.k     -.w.D D w.b .   O G.H.l 3 K r @       ",
"          { ~.^./.(.y.k     : > > > > :     O G.H.l 3 K r @       ",
"          { )._.`.'.].k             k e @ e [.{.H.l 3 K r @       ",
"          { p.N.}.K 3 k           @ |. Xn .XM XXH.l 3 K r @       ",
"          { p.f.g.oXt.k           o OXJ +X@X2 , H.l 3 K r @       ",
"          { p.f.g.oXt.k           o #X%.$X%.).} H.l 3 K r @       ",
"          { 0.N.%X&XC.b.@         : *X=X-X8 t @.H.l 3 K r @       ",
"          { ;X:X>X,X<X*X. :         1X; ; ; o.{.H.l 3 K r @       ",
"          { R.2X3X%.4X5X|.X @               O G.6Xl 3 K r @       ",
"          { ~.Q.1.7X8X9X0XqXO               O G.6X+XwXK r @       ",
"          { ~.1.E.Q.f.eX).P.n.+ @ e k : ; : O rXtX% yX$ r @       ",
"          { ~.1.E.1.y uXiX3 D.pXr aX|.5., s F Q 4XsXdX& r @       ",
"          { ~.1.E.7XP.@.fXz.#Xg .Xg gXhXjXkXW lX4X1.sX& r @       ",
"          { ~.1.E.2XzXy xXH.cXvXbXvXzXfXxX6X$XnX%.E.sX& r @       ",
"          O ).mXsXsXMXNX(.NXMXBXVXBXMXNX(.NXCXZXsXsXAX$.r @       ",
"          o SXh.DXDXDXDXDXDXDXDXDXDXDXDXDXDXDXDXDXDX6 FXX @       ",
"            . X X X X X X X X X X X X X X X X X X X X .           "
};
