/* XPM */
static char *player1713966726[] = {
/* columns rows colors chars-per-pixel */
"33 33 222 2 ",
"   c #EFF5EF",
".  c #F5FBF5",
"X  c #F7FDF7",
"o  c #F3F9F3",
"O  c #F2F8F2",
"+  c #F6FDF6",
"@  c #F1F7F1",
"#  c #ADB1AD",
"$  c #909390",
"%  c #939793",
"&  c #919491",
"*  c #C6CBC6",
"=  c #F8FEF8",
"-  c #F0F6F0",
";  c #E0E6E0",
":  c #CDD2CD",
">  c #C5CAC5",
",  c #5B5D5B",
"<  c gray18",
"1  c #333433",
"2  c gray19",
"3  c #818581",
"4  c #CFD4CF",
"5  c #E9EFE9",
"6  c #949794",
"7  c #252625",
"8  c #343534",
"9  c #AAAEAA",
"0  c #DCE1DC",
"q  c #D6DBD6",
"w  c #DADFDA",
"e  c #7F827F",
"r  c #242524",
"t  c #373937",
"y  c #C3C8C3",
"u  c #F4FAF4",
"i  c #EBF1EB",
"p  c #878A87",
"a  c #282928",
"s  c #232323",
"d  c #9A9E9A",
"f  c #E1E7E1",
"g  c #F6FCF6",
"h  c #CFD5CF",
"j  c #757875",
"k  c #111111",
"l  c #434443",
"z  c #AEB2AE",
"x  c #EEF4EE",
"c  c #4B4D4B",
"v  c #292A29",
"b  c #8C8F8C",
"n  c #EDF3ED",
"m  c #F3FAF3",
"M  c #D5DAD5",
"N  c #6C6F6C",
"B  c #181818",
"V  c #888B88",
"C  c #FBFFFB",
"Z  c #3F403F",
"A  c #707270",
"S  c #F5FCF5",
"D  c #E3E8E3",
"F  c #3D3E3D",
"G  c #D8DED8",
"H  c #CBD0CB",
"J  c #373837",
"K  c #0C0C0C",
"L  c #757775",
"P  c #E8EEE8",
"I  c #ECF2EC",
"U  c #D9DFD9",
"Y  c #3D3F3D",
"T  c #0E0E0E",
"R  c #616361",
"E  c #212221",
"W  c #050405",
"Q  c #7B7D7B",
"!  c #D1D6D1",
"~  c #575957",
"^  c #444544",
"/  c #484948",
"(  c #474947",
")  c #1D1D1D",
"_  c #4F504F",
"`  c #E9EEE9",
"'  c #C7CCC7",
"]  c #060606",
"[  c #797C79",
"{  c #7D807D",
"}  c #696C69",
"|  c #ACB0AC",
" . c #6D706D",
".. c #6D6F6D",
"X. c gray15",
"o. c #060506",
"O. c #525452",
"+. c #787B78",
"@. c #C8CDC8",
"#. c #E5EBE5",
"$. c #F1F8F1",
"%. c #EAF0EA",
"&. c #BABEBA",
"*. c #363736",
"=. c gray1",
"-. c #777A77",
";. c #C0C5C0",
":. c #404140",
">. c #B8BDB8",
",. c #E6EBE6",
"<. c #E6ECE6",
"1. c #B9BEB9",
"2. c gray7",
"3. c gray3",
"4. c #0B0B0B",
"5. c #9FA39F",
"6. c #424342",
"7. c #454745",
"8. c #A5A9A5",
"9. c gray9",
"0. c #090909",
"q. c gray5",
"w. c #3C3D3C",
"e. c #FAFFFA",
"r. c #B3B8B3",
"t. c #727472",
"y. c #C0C4C0",
"u. c #BEC2BE",
"i. c #1A1B1A",
"p. c #0D0C0D",
"a. c #0C0B0C",
"s. c #343434",
"d. c #B1B5B1",
"f. c #F8FFF8",
"g. c #DEE4DE",
"h. c #8D908D",
"j. c gray6",
"k. c #252525",
"l. c #AFB3AF",
"z. c #EAEFEA",
"x. c #E7EDE7",
"c. c #151515",
"v. c #101010",
"b. c #454645",
"n. c #404240",
"m. c gray16",
"M. c #070707",
"N. c #020202",
"B. c #818481",
"V. c #1E1E1E",
"C. c gray2",
"Z. c #0B0A0B",
"A. c #272727",
"S. c #3B3C3B",
"D. c #131313",
"F. c #383938",
"G. c #ECF1EC",
"H. c #747774",
"J. c #282828",
"K. c #272827",
"L. c #505250",
"P. c gray17",
"I. c #9DA19D",
"U. c #1B1B1B",
"Y. c #ADB2AD",
"T. c #2D2E2D",
"R. c #B4B8B4",
"E. c #686A68",
"W. c #4C4E4C",
"Q. c #C7CBC7",
"!. c #262726",
"~. c #2B2C2B",
"^. c #848784",
"/. c #9EA29E",
"(. c #B5BAB5",
"). c #F9FFF9",
"_. c #3A3B3A",
"`. c #5F625F",
"'. c #040404",
"]. c #3C3E3C",
"[. c #838683",
"{. c #909490",
"}. c #7A7D7A",
"|. c #B3B7B3",
" X c #FCFFFC",
".X c #939693",
"XX c #2F302F",
"oX c #A1A5A1",
"OX c #323332",
"+X c #515351",
"@X c #636563",
"#X c #8C908C",
"$X c #171817",
"%X c #222222",
"&X c gray12",
"*X c gray8",
"=X c #161616",
"-X c #0F0E0F",
";X c #767876",
":X c #100F10",
">X c #5D5F5D",
",X c gray13",
"<X c #4E504E",
"1X c #CCD1CC",
"2X c #646664",
"3X c #CACFCA",
"4X c #474847",
"5X c #0A090A",
"6X c #767976",
"7X c #DCE2DC",
"8X c #B4B9B4",
"9X c #969A96",
"0X c #9B9F9B",
"qX c #545554",
"wX c #999D99",
"eX c #989B98",
"rX c #F0F7F0",
"tX c #8A8D8A",
"yX c #5E605E",
"uX c #606260",
"iX c #AFB4AF",
"pX c white",
/* pixels */
"                                                                  ",
"                          . X X X X o                             ",
"                    O + @ # $ % % & * = . -                       ",
"                  @ ; : > , < 1 1 2 3 4 4 5 @                     ",
"                  O 6 7 8 9 0 q q w e r t y u                     ",
"              - i p a s d f X u u g h j k l z u                   ",
"              O x c v b n m         = M N B V C                   ",
"            - 5 > Z A . @ @ -       - S D F N G x                 ",
"            . H J K L O 5 P I       I I U Y T R 5 @               ",
"            g * E W Q ! ~ ^ d o   o d / ( ) W _ ` @               ",
"            g ' 7 ] [ U { } | O   O |  ...X.o.O.5 @               ",
"            g ' 7 ] +.i @.#.u $.O $.u %.&.*.=.O.5 @               ",
"            g ' 7 ] -.;.:.>.O ,.<.,.O 1.a 2.3.O.5 @               ",
"            g ' 7 4.a R | #.5.6.7.6.8.>.9.T 0.O.5 @               ",
"            g ' 7 q.o.w.I e.r.t.L t.y.u.i.T 0.O.5 @               ",
"            g ' 7 p.a.s.d.<.+ X X f.g.h.B j.0.O.5 @               ",
"            g ' 7 p.k k k.l.z.D D x.{ c.2.k 0.O.5 @               ",
"            g ' 7 p.k v.v.J b.:.n.b.m.q.k k 0.O.5 @               ",
"            g ' k.M.K k v.N.w.B.j V.C.2.v.Z.C.O.5 @               ",
"            g * A.S.s.K D.F.5.C G.H.J.q.2.l K.L.5 @               ",
"            g > P.I.b B U.Y.O   x n -.K T.R.E.W.5 @               ",
"            g Q.!.~.^./.r (.e.    ).-._.R.`.U.L.5 @               ",
"            g ' k.'.].[.{.}.|. X- .XB.$ j E N.O.5 @               ",
"            g ' 7 q.3.XXoXOX+XR.8.T.@X#X2.T 0.O.5 @               ",
"            g ' 7 p.k 2.$X%X&X9.9.2.*X=Xk k 0.O.5 @               ",
"            g ' 7 p.k -X9.I.;X4.j.k v.:Xk k 0.O.5 @               ",
"            g ' 7 p.k v.c.>X/ j.k k k k k k 0.O.5 @               ",
"            g * ,X4.k k k 4.q.k k k k k k k ] <X` @               ",
"            . 1XS.*Xv.v.v.k k k k k k v.v.v.9.2X5 @               ",
"            - %.3X4X5Xv.v.k k k k k k v.v.q.6X7Xx                 ",
"              @ O 8X9X0X% XX'.0.0.] qXI.wXeX1Xg                   ",
"                  u X = rXtXyX@X@XuXiXe.X X O                     ",
"                          x n n n n x                             "
};
