/* XPM */
static char *wall1713966726[] = {
/* columns rows colors chars-per-pixel */
"33 33 216 2 ",
"   c #EFF5EF",
".  c #F4FBF4",
"X  c #F7FDF7",
"o  c #F6FDF6",
"O  c #F0F6F0",
"+  c #EBF1EB",
"@  c #ABAFAB",
"#  c #8F928F",
"$  c #929692",
"%  c #F1F7F1",
"&  c #F4FAF4",
"*  c #E8EDE8",
"=  c #494A49",
"-  c #060506",
";  c gray6",
":  c #070607",
">  c #4A4C4A",
",  c #E7EDE7",
"<  c #F2F8F2",
"1  c #EEF4EE",
"2  c #E9EFE9",
"3  c #EDF3ED",
"4  c #ECF2EC",
"5  c #E0E6E0",
"6  c #4E504E",
"7  c #0D0C0D",
"8  c #111111",
"9  c #090909",
"0  c #494B49",
"q  c #E8EEE8",
"w  c #D1D7D1",
"e  c #656765",
"r  c #C3C8C3",
"t  c #AEB2AE",
"y  c #565856",
"u  c #9FA39F",
"i  c #696C69",
"p  c #0C0C0C",
"a  c #0B0A0B",
"s  c gray4",
"d  c gray3",
"f  c #1A1B1A",
"g  c #5B5D5B",
"h  c #D7DDD7",
"j  c #A1A5A1",
"k  c #4A4B4A",
"l  c #606260",
"z  c #D3D8D3",
"x  c #F6FCF6",
"c  c #C4C8C4",
"v  c #242524",
"b  c #909390",
"n  c #040304",
"m  c #727572",
"M  c #525452",
"N  c #202020",
"B  c #707270",
"V  c #7C7F7C",
"C  c #7D807D",
"Z  c #545654",
"A  c #101010",
"S  c #6F726F",
"D  c #484948",
"F  c #010001",
"G  c #1E1E1E",
"H  c #C6CAC6",
"J  c #C5CAC5",
"K  c #2B2C2B",
"L  c #B0B5B0",
"P  c #939693",
"I  c gray5",
"U  c gray12",
"Y  c #6B6D6B",
"T  c #E6ECE6",
"R  c #D1D6D1",
"E  c #E1E7E1",
"W  c #434443",
"Q  c #151615",
"!  c #0E0E0E",
"~  c #252625",
"^  c #C7CCC7",
"/  c #0B0B0B",
"(  c #747774",
")  c #EAF0EA",
"_  c #E3E8E3",
"`  c #4D4F4D",
"'  c #858885",
"]  c #3B3D3B",
"[  c #C4C9C4",
"{  c #262726",
"}  c #B3B7B3",
"|  c #949794",
" . c #111011",
".. c #818481",
"X. c white",
"o. c #383938",
"O. c #777977",
"+. c #FCFFFC",
"@. c #414241",
"#. c #C6CBC6",
"$. c #F2F9F2",
"%. c #DAE0DA",
"&. c #878A87",
"*. c #7A7C7A",
"=. c #848784",
"-. c #131313",
";. c #454645",
":. c #A3A7A3",
">. c #9EA29E",
",. c #BFC4BF",
"<. c #DDE3DD",
"1. c #808380",
"2. c #282828",
"3. c gray2",
"4. c gray16",
"5. c #838783",
"6. c #DBE1DB",
"7. c #F1F8F1",
"8. c #717471",
"9. c #777A77",
"0. c #A9ADA9",
"q. c #4C4D4C",
"w. c #1D1D1D",
"e. c #070707",
"r. c #353635",
"t. c #B2B6B2",
"y. c #C1C6C1",
"u. c #8D908D",
"i. c gray8",
"p. c #272827",
"a. c #7A7D7A",
"s. c #838683",
"d. c #454745",
"f. c #CCD1CC",
"g. c #4B4D4B",
"h. c gray10",
"j. c #F8FEF8",
"k. c #3C3D3C",
"l. c #D8DED8",
"z. c #505250",
"x. c #0E0D0E",
"c. c #090809",
"v. c #0A090A",
"b. c #3E3F3E",
"n. c #D6DBD6",
"m. c #6D706D",
"M. c #8E918E",
"N. c #272727",
"B. c #4B4C4B",
"V. c #616361",
"C. c #939793",
"Z. c #202120",
"A. c #BCC1BC",
"S. c #BBBFBB",
"D. c #303130",
"F. c #858985",
"G. c #4F514F",
"H. c gray11",
"J. c #212221",
"K. c #282928",
"L. c #8B8E8B",
"P. c #020102",
"I. c #393A39",
"U. c #C9CEC9",
"Y. c #161616",
"T. c #888C88",
"R. c #222222",
"E. c #6E716E",
"W. c #767876",
"Q. c #5E605E",
"!. c #3B3C3B",
"~. c #515351",
"^. c #292A29",
"/. c #1C1D1C",
"(. c #8B8F8B",
"). c #F9FFF9",
"_. c #505150",
"`. c #525352",
"'. c #D8DDD8",
"]. c #686A68",
"[. c #D9DFD9",
"{. c #D5DAD5",
"}. c #696B69",
"|. c #BFC3BF",
" X c #797C79",
".X c #D0D6D0",
"XX c #484A48",
"oX c #5F615F",
"OX c #E5EBE5",
"+X c #1D1E1D",
"@X c gray14",
"#X c #363736",
"$X c #191A19",
"%X c #707370",
"&X c #585A58",
"*X c #6D6F6D",
"=X c #747674",
"-X c #252525",
";X c #D9DED9",
":X c #F3F9F3",
">X c #C0C5C0",
",X c gray7",
"<X c #535553",
"1X c #999C99",
"2X c #626462",
"3X c #6C6E6C",
"4X c #D4DAD4",
"5X c gray15",
"6X c #CBD0CB",
"7X c #F5FBF5",
"8X c #D7DCD7",
"9X c #D3D9D3",
"0X c #CACFCA",
"qX c #CDD2CD",
"wX c #D0D5D0",
"eX c #F5FCF5",
/* pixels */
"                                                                  ",
"                                                                  ",
"                                                                  ",
"                                                                  ",
"                                                                  ",
"                          . X o o o X .                           ",
"                      O + @ # $ $ $ # @ + O                       ",
"                % O O & * = - ; ; ; : > , < O % %                 ",
"              1 2 3 4 + 5 6 7 8 8 8 9 0 5 O 4 q 2 1               ",
"            & w e r t 6 y u i p a s d f g h j k l z &             ",
"            x c v t b n ; m M N B V C Z A S D F G H x             ",
"            x J K L P I 8 I U Y T R E J W Q ! I ~ ^ x             ",
"            x J K L P I 8 / ( ) _ ` ' & R ] s 7 ~ ^ x             ",
"            x [ { } | d  ./ ..X._ o.O.+.* @.s / N #.x             ",
"            $.%.&.*.=.Y -.s ;.:.) >.,.<.1.2.3.4.5.6.$.            ",
"              7.1 8.9.0.q.w.e.r.t.y.[ u.i.I p.a.  %               ",
"                  4 s.d.f.g.9 i.w.G G h.8 I =.3                   ",
"                  j.=.k.l.z.: p x.s c.v.p p u.j.                  ",
"                  x =.b.n.q.= B U m.b M.s.N.&.x                   ",
"                  x =.b.n.B.V.C.Z.u.A.S.t D.F.x                   ",
"                  x =.b.n.G.I H.J.K.K { h.; L.x                   ",
"                  x =.b.n.G.P.I.S.J U.C.Y./ L.x                   ",
"                  +.T.b.n.G.P.R.E.W.V Q.! s L.x                   ",
"              O % ^ g !.n.` K y z.~.^.G 6 /.(.).                  ",
"            O 3 h _.A `.'.k ].[.{.[.}.W |.o. X,                   ",
"            x .XXXA oXh OXq.+Xk.!.k.@XH.#X$XU %X4 %               ",
"          ).y.&XA *X# =XY ^.s s s s ! ; / A s -XO.;X:X            ",
"        1 >Xg ,X<X1X2XP.3.s p p p p p p p p p 3.h.J x             ",
"      O 4 3XU 6 4X}.-X^.^.^.^.^.^.^.^.^.^.^.^.5X!.6X7X            ",
"        1 8XU.9X4 8X0XqXqXqXqXqXqXqXqXqXqXqXqXf.wX2 O             ",
"          :Xx & O :XeX7X7X7X7X7X7X7X7X7X7X7X7X7X7XO               ",
"                                                                  ",
"                                                                  "
};
